<svg width="34" height="35" viewBox="0 0 34 35" fill="none" xmlns="http://www.w3.org/2000/svg">
<path d="M0.500001 17.4022C0.500002 8.06111 7.89804 0.508344 17 0.508345C26.102 0.508346 33.5 8.06112 33.5 17.4022C33.5 26.7432 26.102 34.296 17 34.296C7.89804 34.296 0.500001 26.7432 0.500001 17.4022Z" stroke="#848484"/>
<path d="M12.2387 16.3737L18.8388 10.4541C19.1571 10.1686 19.6732 10.1686 19.9915 10.4541L20.7613 11.1445C21.079 11.4295 21.0797 11.8915 20.7626 12.1771L15.5319 16.8906L20.7626 21.604C21.0797 21.8897 21.079 22.3516 20.7613 22.6366L19.9915 23.327C19.6732 23.6125 19.1571 23.6125 18.8388 23.327L12.2387 17.4075C11.9204 17.122 11.9204 16.6592 12.2387 16.3737Z" fill="#848484"/>
</svg>
