<svg width="34" height="35" viewBox="0 0 34 35" fill="none" xmlns="http://www.w3.org/2000/svg">
<path d="M33.5 17.3938C33.5 26.7349 26.102 34.2877 17 34.2877C7.89804 34.2877 0.5 26.7349 0.5 17.3938C0.5 8.05277 7.89804 0.5 17 0.5C26.102 0.5 33.5 8.05277 33.5 17.3938Z" stroke="#848484"/>
<path d="M21.7613 18.4224L15.1612 24.3419C14.8429 24.6274 14.3268 24.6274 14.0085 24.3419L13.2387 23.6515C12.921 23.3665 12.9203 22.9046 13.2374 22.6189L18.4681 17.9054L13.2374 13.192C12.9203 12.9063 12.921 12.4444 13.2387 12.1594L14.0085 11.469C14.3268 11.1835 14.8429 11.1835 15.1612 11.469L21.7613 17.3885C22.0796 17.674 22.0796 18.1369 21.7613 18.4224Z" fill="#848484"/>
</svg>
