<svg width="39" height="39" viewBox="0 0 39 39" fill="none" xmlns="http://www.w3.org/2000/svg">
<g clip-path="url(#clip0)">
<path d="M33.4192 33.5414L31.3657 10.9458C31.3078 10.3233 30.7866 9.84792 30.1616 9.84792H26.5421V7.4349C26.5421 5.49484 25.7916 3.67301 24.4283 2.30965C23.0649 0.946295 21.2431 0.195847 19.303 0.195847C15.3119 0.195847 12.064 3.44377 12.064 7.4349V9.84792H8.44444C7.81947 9.84792 7.29825 10.3233 7.24275 10.9458L5.18927 33.5414C5.06621 34.8878 5.51986 36.2343 6.43198 37.2333C7.3441 38.2323 8.6423 38.8042 9.99601 38.8042H28.6125C29.9662 38.8042 31.2644 38.2323 32.1765 37.2333C33.0886 36.2343 33.5398 34.8878 33.4192 33.5414ZM14.477 7.4349C14.477 4.77334 16.6415 2.60887 19.303 2.60887C20.5988 2.60887 21.8126 3.10836 22.7223 4.01566C23.632 4.92295 24.1291 6.13911 24.1291 7.4349V9.84792H14.477V7.4349ZM30.3933 35.6069C29.93 36.1112 29.2977 36.3911 28.61 36.3911H9.99601C9.31071 36.3911 8.67609 36.1112 8.2152 35.6045C7.7519 35.0978 7.53232 34.4438 7.59506 33.7585L9.54719 12.2609H12.064V15.8805C12.064 16.5465 12.6045 17.087 13.2705 17.087C13.9365 17.087 14.477 16.5465 14.477 15.8805V12.2609H24.1291V15.8805C24.1291 16.5465 24.6696 17.087 25.3356 17.087C26.0016 17.087 26.5421 16.5465 26.5421 15.8805V12.2609H29.0589L31.0134 33.7609C31.0761 34.4438 30.8566 35.1002 30.3933 35.6069Z" fill="#F3455A"/>
</g>
<defs>
<clipPath id="clip0">
<rect width="38.6083" height="38.6083" fill="white" transform="translate(0 0.195847)"/>
</clipPath>
</defs>
</svg>
